<svg xmlns="http://www.w3.org/2000/svg" width="400" height="225" viewBox="0 0 400 225"><defs><linearGradient id="db-gradient" x1="0%" x2="100%" y1="0%" y2="100%"><stop offset="0%" style="stop-color:#f97316;stop-opacity:1"/><stop offset="100%" style="stop-color:#ea580c;stop-opacity:1"/></linearGradient><linearGradient id="oracle-gradient" x1="0%" x2="100%" y1="0%" y2="100%"><stop offset="0%" style="stop-color:#fed7aa;stop-opacity:.8"/><stop offset="100%" style="stop-color:#f97316;stop-opacity:.4"/></linearGradient></defs><rect width="400" height="225" fill="url(#db-gradient)"/><g transform="translate(100, 60)"><ellipse cx="0" cy="0" fill="rgba(255,255,255,0.9)" stroke="rgba(234,88,12,0.8)" stroke-width="2" rx="35" ry="8"/><rect width="70" height="60" x="-35" y="0" fill="rgba(255,255,255,0.9)"/><ellipse cx="0" cy="60" fill="rgba(255,255,255,0.9)" stroke="rgba(234,88,12,0.8)" stroke-width="2" rx="35" ry="8"/><line x1="-35" x2="35" y1="15" y2="15" stroke="rgba(234,88,12,0.6)" stroke-width="1"/><line x1="-35" x2="35" y1="30" y2="30" stroke="rgba(234,88,12,0.6)" stroke-width="1"/><line x1="-35" x2="35" y1="45" y2="45" stroke="rgba(234,88,12,0.6)" stroke-width="1"/><g transform="translate(100, 20)"><ellipse cx="0" cy="0" fill="rgba(255,255,255,0.9)" stroke="rgba(234,88,12,0.8)" stroke-width="2" rx="35" ry="8"/><rect width="70" height="60" x="-35" y="0" fill="rgba(255,255,255,0.9)"/><ellipse cx="0" cy="60" fill="rgba(255,255,255,0.9)" stroke="rgba(234,88,12,0.8)" stroke-width="2" rx="35" ry="8"/><line x1="-35" x2="35" y1="15" y2="15" stroke="rgba(234,88,12,0.6)" stroke-width="1"/><line x1="-35" x2="35" y1="30" y2="30" stroke="rgba(234,88,12,0.6)" stroke-width="1"/><line x1="-35" x2="35" y1="45" y2="45" stroke="rgba(234,88,12,0.6)" stroke-width="1"/></g></g><g fill="none" stroke="url(#oracle-gradient)" stroke-width="3" opacity=".7"><path d="M80,100 Q150,80 220,100"/><path d="M80,120 Q150,140 220,120"/><line x1="250" x2="320" y1="100" y2="100"/><line x1="250" x2="320" y1="120" y2="120"/></g><g transform="translate(320, 90)"><rect width="40" height="30" x="-20" y="-15" fill="rgba(255,255,255,0.95)" stroke="rgba(234,88,12,0.8)" stroke-width="2" rx="8"/><text x="0" y="-2" fill="#ea580c" font-family="Arial, sans-serif" font-size="10" font-weight="bold" text-anchor="middle">ORACLE</text><text x="0" y="10" fill="#9a3412" font-family="Arial, sans-serif" font-size="6" text-anchor="middle">DATABASE</text></g><g opacity=".8" transform="translate(60, 140)"><circle cx="0" cy="0" r="3" fill="#fed7aa"><animate attributeName="opacity" dur="2s" repeatCount="indefinite" values="0.4;1;0.4"/></circle><circle cx="15" cy="0" r="3" fill="#fed7aa"><animate attributeName="opacity" begin="0.3s" dur="2s" repeatCount="indefinite" values="0.4;1;0.4"/></circle><circle cx="30" cy="0" r="3" fill="#fed7aa"><animate attributeName="opacity" begin="0.6s" dur="2s" repeatCount="indefinite" values="0.4;1;0.4"/></circle></g><g transform="translate(300, 140)"><path fill="rgba(255,255,255,0.9)" stroke="rgba(234,88,12,0.8)" stroke-width="1" d="M7 4V2a1 1 0 0 0-1-1H4a1 1 0 0 0 0 2v11a3 3 0 0 0 3 3h6a3 3 0 0 0 3-3V6a1 1 0 0 0-1-1H7z"/><circle cx="9" cy="11" r="1" fill="#ea580c"/><circle cx="13" cy="11" r="1" fill="#ea580c"/></g><text x="200" y="200" fill="rgba(255,255,255,0.95)" font-family="Arial, sans-serif" font-size="14" font-weight="bold" text-anchor="middle">Oracle Database System</text><text x="200" y="215" fill="rgba(255,255,255,0.8)" font-family="Arial, sans-serif" font-size="10" text-anchor="middle">Tech Store Management • Oracle DB</text></svg>